<?xml version="1.0" encoding="UTF-8"?>
<svg id="Layer_2" data-name="Layer 2" xmlns="http://www.w3.org/2000/svg" viewBox="0 0 2217.01 716.96">
  <defs>
    <style>
      .cls-1 {
        fill: #282828;
      }

      .cls-1, .cls-2 {
        stroke-width: 0px;
      }

      .cls-2 {
        fill: #ef3e30;
      }
    </style>
  </defs>
  <g id="Layer_1-2" data-name="Layer 1">
    <g>
      <g>
        <polygon class="cls-2" points="276.09 276.09 276.09 138.04 138.04 0 0 0 0 138.04 0 413.9 138.04 551.94 276.09 551.94 276.09 413.9 138.04 276.09 276.09 276.09"/>
        <polygon class="cls-2" points="414.13 276.09 276.09 276.09 276.09 413.9 414.13 551.94 552.18 551.94 552.18 413.9 414.13 276.09"/>
      </g>
      <path class="cls-1" d="M1137.86,551.63l-22.66-48.33h-151.69l-22.66,48.33h-101.97l132.26-275.86h136.43l132.26,275.86h-101.97ZM995.66,434.4h87.4l-43.7-92.72s-43.7,92.72-43.7,92.72Z"/>
      <path class="cls-1" d="M1561.01,275.78v80.47l-171.57,114.92h171.57v80.47h-310.31v-80.47l171.57-114.92h-171.57v-80.47h310.31Z"/>
      <path class="cls-1" d="M1866.47,348.61h-187.76v28.67h166.02v72.84h-166.02v28.67h187.76v72.84h-283.49v-275.86h283.49s0,72.84,0,72.84Z"/>
      <path class="cls-1" d="M2217.01,496.6v55.26h-95.73v-39.08c0-24.51-6.24-31.45-30.75-31.45h-106.6v70.52h-95.73v-275.86h214.58c76.31,0,114.23,31.45,114.23,89.25,0,42.08-18.04,66.59-51.33,78.16,31.91,1.85,51.33,20.35,51.33,53.18ZM1983.93,352.54v52.03h95.73c21.5,0,37.46,0,37.46-26.13s-16.19-26.13-37.46-26.13h-95.73v.23Z"/>
      <polygon class="cls-1" points="647.89 471.17 647.89 275.78 552.16 275.78 552.16 413.59 552.16 413.82 690.2 551.63 828.02 551.63 828.02 471.17 647.89 471.17"/>
      <path class="cls-1" d="M1013.92,638.58h24.97v55.26h50.87v21.04h-75.84v-76.31Z"/>
      <path class="cls-1" d="M1108.27,676.73c0-24.28,21.04-40,53.41-40s53.65,15.72,53.65,40-21.04,40.23-53.65,40.23-53.41-15.72-53.41-40.23ZM1161.68,695.92c16.88,0,27.52-7.63,27.52-19.19s-10.64-18.96-27.52-18.96-27.29,7.63-27.29,18.96,10.64,19.19,27.29,19.19Z"/>
      <path class="cls-1" d="M1237.06,677.19c0-24.51,20.58-40.47,52.03-40.47,28.9,0,48.56,12.26,49.71,30.06h-26.82c-1.39-4.62-10.17-9.02-22.89-9.02-16.42,0-26.13,8.09-26.13,19.19,0,12.02,10.87,18.73,28.9,18.73,8.79,0,18.27-1.16,26.59-4.39v-3.7h-31.68v-15.49h51.8v32.83c-11.56,7.63-30.52,11.79-48.1,11.79-32.6,0-53.65-15.49-53.65-39.77l.23.23Z"/>
      <path class="cls-1" d="M1363.08,638.58h24.97v76.31h-24.97v-76.31Z"/>
      <path class="cls-1" d="M1411.41,689.68h25.9c0,5.55,5.78,9.25,22.2,9.25s20.12-2.31,20.12-6.47c0-4.62-2.77-5.55-21.27-6.71h-3.7c-29.13-1.85-42.08-9.02-42.08-25.44s16.65-23.59,43.01-23.59c30.06,0,46.01,9.25,46.94,25.9h-25.9c0-5.78-6.94-7.86-21.27-7.86-13.41,0-16.88,2.08-16.88,5.32,0,3.93,2.77,5.32,19.89,6.47h4.39c25.9,2.31,42.78,5.09,42.78,24.74s-16.88,25.44-44.86,25.44c-30.75,0-48.33-7.4-49.25-27.29v.23Z"/>
      <path class="cls-1" d="M1523.32,638.58h90.64v21.04h-32.83v55.26h-24.97v-55.26h-32.83v-21.04Z"/>
      <path class="cls-1" d="M1637.09,638.58h24.97v76.31h-24.97v-76.31Z"/>
      <path class="cls-1" d="M1685.18,676.73c0-24.28,20.12-40,50.64-40,28.21,0,48.1,13.18,50.18,32.6h-26.59c-1.16-6.71-10.41-11.56-23.59-11.56-15.03,0-24.74,7.63-24.74,18.96s9.71,19.19,24.74,19.19c13.18,0,22.2-5.09,23.59-11.79h26.59c-2.08,19.65-21.97,32.83-50.18,32.83-30.52,0-50.64-15.72-50.64-40.23Z"/>
      <path class="cls-1" d="M1807.04,689.68h25.9c0,5.55,5.78,9.25,22.2,9.25s20.12-2.31,20.12-6.47c0-4.62-2.77-5.55-21.27-6.71h-3.7c-29.13-1.85-42.08-9.02-42.08-25.44s16.65-23.59,43.01-23.59c30.06,0,46.01,9.25,46.94,25.9h-25.9c0-5.78-6.94-7.86-21.27-7.86-13.41,0-16.88,2.08-16.88,5.32,0,3.93,2.77,5.32,19.89,6.47h4.39c25.9,2.31,42.78,5.09,42.78,24.74s-16.88,25.44-44.86,25.44c-30.75,0-48.33-7.4-49.25-27.29v.23Z"/>
    </g>
  </g>
</svg>